<svg width="256.72503051757815px" height="124.67750549316406px" xmlns="http://www.w3.org/2000/svg" viewBox="121.63748474121093 12.661247253417969 256.72503051757815 124.67750549316406" style="background: rgba(0, 0, 0, 0);" preserveAspectRatio="xMidYMid"><defs><filter id="editing-extrusion" x="-100%" y="-100%" width="300%" height="300%"><feFlood result="color1" flood-color="#444"></feFlood><feConvolveMatrix order="5,5" divisor="1" kernelMatrix="1 0 0 0 0 0 1 0 0 0 0 0 1 0 0 0 0 0 1 0 0 0 0 0 1" in="SourceAlpha" result="extrude"></feConvolveMatrix><feComposite in="color1" in2="extrude" result="comp-extrude" operator="in"></feComposite><feOffset dx="2.5" dy="2.5" in="comp-extrude" result="offset-extrude"></feOffset><feMerge><feMergeNode in="offset-extrude"></feMergeNode><feMergeNode in="SourceGraphic"></feMergeNode></feMerge></filter></defs><g filter="url(#editing-extrusion)"><g transform="translate(161.32500171661377, 97.40500068664551)"><path d="M58.13-12.81L58.13-12.81L58.13-12.81Q58.13-10.13 57.11-7.80L57.11-7.80L57.11-7.80Q56.09-5.47 54.36-3.73L54.36-3.73L54.36-3.73Q52.63-2 50.28-1L50.28-1L50.28-1Q47.94 0 45.31 0L45.31 0L14.97 0L14.97-6.41L45.31-6.41L45.31-6.41Q46.63-6.41 47.80-6.91L47.80-6.91L47.80-6.91Q48.97-7.41 49.84-8.28L49.84-8.28L49.84-8.28Q50.72-9.16 51.22-10.33L51.22-10.33L51.22-10.33Q51.72-11.50 51.72-12.81L51.72-12.81L51.72-12.81Q51.72-14.13 51.22-15.28L51.22-15.28L51.22-15.28Q50.72-16.44 49.84-17.31L49.84-17.31L49.84-17.31Q48.97-18.19 47.80-18.69L47.80-18.69L47.80-18.69Q46.63-19.19 45.31-19.19L45.31-19.19L14.97-19.19L14.97-25.59L38.91-25.59L38.91-25.59Q40.22-25.59 41.39-26.09L41.39-26.09L41.39-26.09Q42.56-26.59 43.44-27.47L43.44-27.47L43.44-27.47Q44.31-28.34 44.81-29.52L44.81-29.52L44.81-29.52Q45.31-30.69 45.31-32L45.31-32L45.31-32Q45.31-33.31 44.81-34.48L44.81-34.48L44.81-34.48Q44.31-35.66 43.44-36.53L43.44-36.53L43.44-36.53Q42.56-37.41 41.39-37.91L41.39-37.91L41.39-37.91Q40.22-38.41 38.91-38.41L38.91-38.41L11.78-38.41L11.78 0L5.38 0L5.38-44.81L38.91-44.81L38.91-44.81Q41.53-44.81 43.88-43.80L43.88-43.80L43.88-43.80Q46.22-42.78 47.95-41.05L47.95-41.05L47.95-41.05Q49.69-39.31 50.70-36.97L50.70-36.97L50.70-36.97Q51.72-34.63 51.72-32L51.72-32L51.72-32Q51.72-29.97 51.13-28.17L51.13-28.17L51.13-28.17Q50.53-26.38 49.53-24.84L49.53-24.84L49.53-24.84Q51.41-24.19 52.98-23L52.98-23L52.98-23Q54.56-21.81 55.70-20.25L55.70-20.25L55.70-20.25Q56.84-18.69 57.48-16.80L57.48-16.80L57.48-16.80Q58.13-14.91 58.13-12.81ZM105.47-19.19L105.47 0L76.66 0L76.66 0Q74.03 0 71.70-1.02L71.70-1.02L71.70-1.02Q69.38-2.03 67.64-3.77L67.64-3.77L67.64-3.77Q65.91-5.50 64.89-7.83L64.89-7.83L64.89-7.83Q63.88-10.16 63.88-12.81L63.88-12.81L63.88-12.81Q63.88-15.66 65.03-18.14L65.03-18.14L65.03-18.14Q66.19-20.63 68.22-22.41L68.22-22.41L68.22-22.41Q66.19-24.16 65.03-26.63L65.03-26.63L65.03-26.63Q63.88-29.09 63.88-32L63.88-32L63.88-32Q63.88-34.63 64.89-36.97L64.89-36.97L64.89-36.97Q65.91-39.31 67.64-41.05L67.64-41.05L67.64-41.05Q69.38-42.78 71.70-43.80L71.70-43.80L71.70-43.80Q74.03-44.81 76.66-44.81L76.66-44.81L105.47-44.81L105.47-38.41L76.66-38.41L76.66-38.41Q75.34-38.41 74.19-37.91L74.19-37.91L74.19-37.91Q73.03-37.41 72.16-36.53L72.16-36.53L72.16-36.53Q71.28-35.66 70.78-34.48L70.78-34.48L70.78-34.48Q70.28-33.31 70.28-32L70.28-32L70.28-32Q70.28-30.69 70.77-29.55L70.77-29.55L70.77-29.55Q71.25-28.41 72.08-27.55L72.08-27.55L72.08-27.55Q72.91-26.69 74.02-26.16L74.02-26.16L74.02-26.16Q75.13-25.63 76.41-25.59L76.41-25.59L76.66-25.59L86.28-25.59L86.28-19.19L76.66-19.19L76.66-19.19Q75.34-19.19 74.19-18.69L74.19-18.69L74.19-18.69Q73.03-18.19 72.16-17.31L72.16-17.31L72.16-17.31Q71.28-16.44 70.78-15.28L70.78-15.28L70.78-15.28Q70.28-14.13 70.28-12.81L70.28-12.81L70.28-12.81Q70.28-11.50 70.78-10.33L70.78-10.33L70.78-10.33Q71.28-9.16 72.16-8.28L72.16-8.28L72.16-8.28Q73.03-7.41 74.19-6.91L74.19-6.91L74.19-6.91Q75.34-6.41 76.66-6.41L76.66-6.41L99.06-6.41L99.06-19.19L92.66-19.19L92.66-25.59L111.88-25.59L111.88-19.19L105.47-19.19ZM171.97-12.81L171.97-12.81L171.97-12.81Q171.97-10.13 170.95-7.80L170.95-7.80L170.95-7.80Q169.94-5.47 168.20-3.73L168.20-3.73L168.20-3.73Q166.47-2 164.13-1L164.13-1L164.13-1Q161.78 0 159.16 0L159.16 0L128.81 0L128.81-6.41L159.16-6.41L159.16-6.41Q160.47-6.41 161.64-6.91L161.64-6.91L161.64-6.91Q162.81-7.41 163.69-8.28L163.69-8.28L163.69-8.28Q164.56-9.16 165.06-10.33L165.06-10.33L165.06-10.33Q165.56-11.50 165.56-12.81L165.56-12.81L165.56-12.81Q165.56-14.13 165.06-15.28L165.06-15.28L165.06-15.28Q164.56-16.44 163.69-17.31L163.69-17.31L163.69-17.31Q162.81-18.19 161.64-18.69L161.64-18.69L161.64-18.69Q160.47-19.19 159.16-19.19L159.16-19.19L128.81-19.19L128.81-25.59L152.75-25.59L152.75-25.59Q154.06-25.59 155.23-26.09L155.23-26.09L155.23-26.09Q156.41-26.59 157.28-27.47L157.28-27.47L157.28-27.47Q158.16-28.34 158.66-29.52L158.66-29.52L158.66-29.52Q159.16-30.69 159.16-32L159.16-32L159.16-32Q159.16-33.31 158.66-34.48L158.66-34.48L158.66-34.48Q158.16-35.66 157.28-36.53L157.28-36.53L157.28-36.53Q156.41-37.41 155.23-37.91L155.23-37.91L155.23-37.91Q154.06-38.41 152.75-38.41L152.75-38.41L125.63-38.41L125.63 0L119.22 0L119.22-44.81L152.75-44.81L152.75-44.81Q155.38-44.81 157.72-43.80L157.72-43.80L157.72-43.80Q160.06-42.78 161.80-41.05L161.80-41.05L161.80-41.05Q163.53-39.31 164.55-36.97L164.55-36.97L164.55-36.97Q165.56-34.63 165.56-32L165.56-32L165.56-32Q165.56-29.97 164.97-28.17L164.97-28.17L164.97-28.17Q164.38-26.38 163.38-24.84L163.38-24.84L163.38-24.84Q165.25-24.19 166.83-23L166.83-23L166.83-23Q168.41-21.81 169.55-20.25L169.55-20.25L169.55-20.25Q170.69-18.69 171.33-16.80L171.33-16.80L171.33-16.80Q171.97-14.91 171.97-12.81Z" fill="#ccc"></path></g></g><style>text {
  font-size: 64px;
  font-family: Arial Black;
  dominant-baseline: central;
  text-anchor: middle;
}</style></svg>