<svg width="520.7349731445313px" height="131.3924591064453px" xmlns="http://www.w3.org/2000/svg" viewBox="-10.367486572265648 9.30377044677735 520.7349731445313 131.3924591064453" style="background: rgba(0, 0, 0, 0);" preserveAspectRatio="xMidYMid"><defs><filter id="editing-extrusion" x="-100%" y="-100%" width="300%" height="300%"><feFlood result="color1" flood-color="#444444"></feFlood><feConvolveMatrix order="8,8" divisor="1" kernelMatrix="1 0 0 0 0 0 0 0 0 1 0 0 0 0 0 0 0 0 1 0 0 0 0 0 0 0 0 1 0 0 0 0 0 0 0 0 1 0 0 0 0 0 0 0 0 1 0 0 0 0 0 0 0 0 1 0 0 0 0 0 0 0 0 1" in="SourceAlpha" result="extrude"></feConvolveMatrix><feComposite in="color1" in2="extrude" result="comp-extrude" operator="in"></feComposite><feOffset dx="4" dy="4" in="comp-extrude" result="offset-extrude"></feOffset><feMerge><feMergeNode in="offset-extrude"></feMergeNode><feMergeNode in="SourceGraphic"></feMergeNode></feMerge></filter></defs><g filter="url(#editing-extrusion)"><g transform="translate(64.34000015258789, 99.03000068664551)"><path d="M49.44-11.41L49.44-9.84L49.44-9.84Q49.44-8.34 48.92-6.63L48.92-6.63L48.92-6.63Q48.41-4.91 47.23-3.44L47.23-3.44L47.23-3.44Q46.06-1.97 44.19-0.98L44.19-0.98L44.19-0.98Q42.31 0 39.59 0L39.59 0L8.75 0L8.75 0Q7.88 0 7.13-0.31L7.13-0.31L7.13-0.31Q6.38-0.63 5.83-1.17L5.83-1.17L5.83-1.17Q5.28-1.72 4.97-2.47L4.97-2.47L4.97-2.47Q4.66-3.22 4.66-4.09L4.66-4.09L4.66-40.72L4.66-40.72Q4.66-41.56 4.97-42.31L4.97-42.31L4.97-42.31Q5.28-43.06 5.83-43.63L5.83-43.63L5.83-43.63Q6.38-44.19 7.13-44.50L7.13-44.50L7.13-44.50Q7.88-44.81 8.75-44.81L8.75-44.81L35.94-44.81L35.94-44.81Q37.44-44.81 39.16-44.28L39.16-44.28L39.16-44.28Q40.88-43.75 42.36-42.58L42.36-42.58L42.36-42.58Q43.84-41.41 44.83-39.53L44.83-39.53L44.83-39.53Q45.81-37.66 45.81-34.94L45.81-34.94L45.81-33.41L45.81-33.41Q45.81-31.25 45.09-28.77L45.09-28.77L45.09-28.77Q44.38-26.28 42.78-24.06L42.78-24.06L42.78-24.06Q44.16-23.22 45.36-22.03L45.36-22.03L45.36-22.03Q46.56-20.84 47.47-19.28L47.47-19.28L47.47-19.28Q48.38-17.72 48.91-15.75L48.91-15.75L48.91-15.75Q49.44-13.78 49.44-11.41L49.44-11.41ZM41.31-9.91L41.31-11.41L41.31-11.41Q41.31-13 40.81-14.27L40.81-14.27L40.81-14.27Q40.31-15.53 39.41-16.44L39.41-16.44L39.41-16.44Q38.50-17.34 37.22-17.83L37.22-17.83L37.22-17.83Q35.94-18.31 34.34-18.31L34.34-18.31L16.03-18.31L16.03-26.50L30.69-26.50L30.69-26.50Q32.28-26.50 33.56-26.98L33.56-26.98L33.56-26.98Q34.84-27.47 35.75-28.38L35.75-28.38L35.75-28.38Q36.66-29.28 37.14-30.55L37.14-30.55L37.14-30.55Q37.63-31.81 37.63-33.41L37.63-33.41L37.63-34.94L37.63-34.94Q37.63-36.69 35.94-36.69L35.94-36.69L12.78-36.69L12.78-8.13L39.59-8.13L39.59-8.13Q39.81-8.13 40.13-8.16L40.13-8.16L40.13-8.16Q40.44-8.19 40.69-8.34L40.69-8.34L40.69-8.34Q40.94-8.50 41.13-8.88L41.13-8.88L41.13-8.88Q41.31-9.25 41.31-9.91L41.31-9.91ZM85.16-33.78L85.16-25.66L66.88-25.66L66.88-25.66Q65.22-25.66 64.38-24.83L64.38-24.83L64.38-24.83Q63.53-24 63.53-22.41L63.53-22.41L63.53 0L55.41 0L55.41-22.41L55.41-22.41Q55.41-24.50 55.94-26.16L55.94-26.16L55.94-26.16Q56.47-27.81 57.36-29.08L57.36-29.08L57.36-29.08Q58.25-30.34 59.41-31.23L59.41-31.23L59.41-31.23Q60.56-32.13 61.83-32.69L61.83-32.69L61.83-32.69Q63.09-33.25 64.39-33.52L64.39-33.52L64.39-33.52Q65.69-33.78 66.81-33.78L66.81-33.78L85.16-33.78ZM126.72-22.59L126.72-22.59L126.72-22.59Q126.72-20.91 126.13-18.95L126.13-18.95L126.13-18.95Q125.53-17 124.20-15.33L124.20-15.33L124.20-15.33Q122.88-13.66 120.73-12.53L120.73-12.53L120.73-12.53Q118.59-11.41 115.53-11.41L115.53-11.41L100.88-11.41L100.88-19.13L115.53-19.13L115.53-19.13Q117.19-19.13 118.09-20.14L118.09-20.14L118.09-20.14Q119-21.16 119-22.66L119-22.66L119-22.66Q119-24.25 117.98-25.16L117.98-25.16L117.98-25.16Q116.97-26.06 115.53-26.06L115.53-26.06L100.88-26.06L100.88-26.06Q99.22-26.06 98.31-25.05L98.31-25.05L98.31-25.05Q97.41-24.03 97.41-22.53L97.41-22.53L97.41-11.19L97.41-11.19Q97.41-9.56 98.42-8.66L98.42-8.66L98.42-8.66Q99.44-7.75 100.94-7.75L100.94-7.75L115.53-7.75L115.53 0L100.88 0L100.88 0Q99.19 0 97.23-0.59L97.23-0.59L97.23-0.59Q95.28-1.19 93.61-2.52L93.61-2.52L93.61-2.52Q91.94-3.84 90.81-5.98L90.81-5.98L90.81-5.98Q89.69-8.13 89.69-11.19L89.69-11.19L89.69-22.59L89.69-22.59Q89.69-24.28 90.28-26.23L90.28-26.23L90.28-26.23Q90.88-28.19 92.20-29.86L92.20-29.86L92.20-29.86Q93.53-31.53 95.67-32.66L95.67-32.66L95.67-32.66Q97.81-33.78 100.88-33.78L100.88-33.78L115.53-33.78L115.53-33.78Q117.22-33.78 119.17-33.19L119.17-33.19L119.17-33.19Q121.13-32.59 122.80-31.27L122.80-31.27L122.80-31.27Q124.47-29.94 125.59-27.80L125.59-27.80L125.59-27.80Q126.72-25.66 126.72-22.59ZM169.63-18.75L169.63 0L161.50 0L161.50-18.75L161.50-18.75Q161.50-20.34 160.95-21.61L160.95-21.61L160.95-21.61Q160.41-22.88 159.47-23.78L159.47-23.78L159.47-23.78Q158.53-24.69 157.27-25.17L157.27-25.17L157.27-25.17Q156-25.66 154.53-25.66L154.53-25.66L140.31-25.66L140.31 0L132.19 0L132.19-29.75L132.19-29.75Q132.19-30.59 132.50-31.33L132.50-31.33L132.50-31.33Q132.81-32.06 133.38-32.61L133.38-32.61L133.38-32.61Q133.94-33.16 134.69-33.47L134.69-33.47L134.69-33.47Q135.44-33.78 136.28-33.78L136.28-33.78L154.59-33.78L154.59-33.78Q156.13-33.78 157.83-33.44L157.83-33.44L157.83-33.44Q159.53-33.09 161.20-32.33L161.20-32.33L161.20-32.33Q162.88-31.56 164.39-30.39L164.39-30.39L164.39-30.39Q165.91-29.22 167.08-27.55L167.08-27.55L167.08-27.55Q168.25-25.88 168.94-23.69L168.94-23.69L168.94-23.69Q169.63-21.50 169.63-18.75L169.63-18.75ZM213.81-48.06L213.81-11.41L213.81-11.41Q213.81-9.31 213.28-7.64L213.28-7.64L213.28-7.64Q212.75-5.97 211.88-4.70L211.88-4.70L211.88-4.70Q211-3.44 209.84-2.55L209.84-2.55L209.84-2.55Q208.69-1.66 207.42-1.09L207.42-1.09L207.42-1.09Q206.16-0.53 204.86-0.27L204.86-0.27L204.86-0.27Q203.56 0 202.41 0L202.41 0L187.75 0L187.75 0Q185.66 0 184-0.53L184-0.53L184-0.53Q182.34-1.06 181.08-1.95L181.08-1.95L181.08-1.95Q179.81-2.84 178.92-4L178.92-4L178.92-4Q178.03-5.16 177.47-6.42L177.47-6.42L177.47-6.42Q176.91-7.69 176.64-8.98L176.64-8.98L176.64-8.98Q176.38-10.28 176.38-11.41L176.38-11.41L176.38-22.41L176.38-22.41Q176.38-25.53 177.52-27.70L177.52-27.70L177.52-27.70Q178.66-29.88 180.36-31.23L180.36-31.23L180.36-31.23Q182.06-32.59 184.06-33.19L184.06-33.19L184.06-33.19Q186.06-33.78 187.75-33.78L187.75-33.78L202.41-33.78L202.41-25.66L187.81-25.66L187.81-25.66Q186.19-25.66 185.34-24.83L185.34-24.83L185.34-24.83Q184.50-24 184.50-22.41L184.50-22.41L184.50-11.47L184.50-11.47Q184.50-9.81 185.33-8.97L185.33-8.97L185.33-8.97Q186.16-8.13 187.75-8.13L187.75-8.13L202.41-8.13L202.41-8.13Q204.06-8.13 204.88-8.97L204.88-8.97L204.88-8.97Q205.69-9.81 205.69-11.41L205.69-11.41L205.69-48.06L213.81-48.06ZM254.22-11.41L254.22-11.41L254.22-11.41Q254.22-9.31 253.69-7.64L253.69-7.64L253.69-7.64Q253.16-5.97 252.28-4.70L252.28-4.70L252.28-4.70Q251.41-3.44 250.25-2.55L250.25-2.55L250.25-2.55Q249.09-1.66 247.83-1.09L247.83-1.09L247.83-1.09Q246.56-0.53 245.27-0.27L245.27-0.27L245.27-0.27Q243.97 0 242.81 0L242.81 0L220.81 0L220.81-8.13L242.75-8.13L242.75-8.13Q244.41-8.13 245.25-8.97L245.25-8.97L245.25-8.97Q246.09-9.81 246.09-11.41L246.09-11.41L246.09-11.41Q245.94-14.66 242.81-14.66L242.81-14.66L230.22-14.66L230.22-14.66Q227.53-14.66 225.66-15.59L225.66-15.59L225.66-15.59Q223.78-16.53 222.61-17.94L222.61-17.94L222.61-17.94Q221.44-19.34 220.92-20.97L220.92-20.97L220.92-20.97Q220.41-22.59 220.41-24L220.41-24L220.41-24Q220.41-26.72 221.38-28.58L221.38-28.58L221.38-28.58Q222.34-30.44 223.81-31.59L223.81-31.59L223.81-31.59Q225.28-32.75 227-33.27L227-33.27L227-33.27Q228.72-33.78 230.22-33.78L230.22-33.78L250.19-33.78L250.19-25.66L230.28-25.66L230.28-25.66Q229.66-25.66 229.30-25.52L229.30-25.52L229.30-25.52Q228.94-25.38 228.77-25.14L228.77-25.14L228.77-25.14Q228.59-24.91 228.56-24.64L228.56-24.64L228.56-24.64Q228.53-24.38 228.53-24.13L228.53-24.13L228.53-24.13Q228.56-23.63 228.72-23.34L228.72-23.34L228.72-23.34Q228.88-23.06 229.11-22.94L229.11-22.94L229.11-22.94Q229.34-22.81 229.64-22.80L229.64-22.80L229.64-22.80Q229.94-22.78 230.22-22.78L230.22-22.78L242.81-22.78L242.81-22.78Q245.94-22.78 248.13-21.66L248.13-21.66L248.13-21.66Q250.31-20.53 251.66-18.83L251.66-18.83L251.66-18.83Q253-17.13 253.61-15.13L253.61-15.13L253.61-15.13Q254.22-13.13 254.22-11.41ZM290.06-33.78L290.06-25.66L275.88-25.66L275.88 0L267.66 0L267.66-25.66L257.09-25.66L257.09-33.78L267.66-33.78L267.66-44.81L275.88-44.81L275.88-33.78L290.06-33.78ZM331.63-22.59L331.63-22.59L331.63-22.59Q331.63-20.91 331.03-18.95L331.03-18.95L331.03-18.95Q330.44-17 329.11-15.33L329.11-15.33L329.11-15.33Q327.78-13.66 325.64-12.53L325.64-12.53L325.64-12.53Q323.50-11.41 320.44-11.41L320.44-11.41L305.78-11.41L305.78-19.13L320.44-19.13L320.44-19.13Q322.09-19.13 323-20.14L323-20.14L323-20.14Q323.91-21.16 323.91-22.66L323.91-22.66L323.91-22.66Q323.91-24.25 322.89-25.16L322.89-25.16L322.89-25.16Q321.88-26.06 320.44-26.06L320.44-26.06L305.78-26.06L305.78-26.06Q304.13-26.06 303.22-25.05L303.22-25.05L303.22-25.05Q302.31-24.03 302.31-22.53L302.31-22.53L302.31-11.19L302.31-11.19Q302.31-9.56 303.33-8.66L303.33-8.66L303.33-8.66Q304.34-7.75 305.84-7.75L305.84-7.75L320.44-7.75L320.44 0L305.78 0L305.78 0Q304.09 0 302.14-0.59L302.14-0.59L302.14-0.59Q300.19-1.19 298.52-2.52L298.52-2.52L298.52-2.52Q296.84-3.84 295.72-5.98L295.72-5.98L295.72-5.98Q294.59-8.13 294.59-11.19L294.59-11.19L294.59-22.59L294.59-22.59Q294.59-24.28 295.19-26.23L295.19-26.23L295.19-26.23Q295.78-28.19 297.11-29.86L297.11-29.86L297.11-29.86Q298.44-31.53 300.58-32.66L300.58-32.66L300.58-32.66Q302.72-33.78 305.78-33.78L305.78-33.78L320.44-33.78L320.44-33.78Q322.13-33.78 324.08-33.19L324.08-33.19L324.08-33.19Q326.03-32.59 327.70-31.27L327.70-31.27L327.70-31.27Q329.38-29.94 330.50-27.80L330.50-27.80L330.50-27.80Q331.63-25.66 331.63-22.59ZM366.66-33.78L366.66-25.66L348.38-25.66L348.38-25.66Q346.72-25.66 345.88-24.83L345.88-24.83L345.88-24.83Q345.03-24 345.03-22.41L345.03-22.41L345.03 0L336.91 0L336.91-22.41L336.91-22.41Q336.91-24.50 337.44-26.16L337.44-26.16L337.44-26.16Q337.97-27.81 338.86-29.08L338.86-29.08L338.86-29.08Q339.75-30.34 340.91-31.23L340.91-31.23L340.91-31.23Q342.06-32.13 343.33-32.69L343.33-32.69L343.33-32.69Q344.59-33.25 345.89-33.52L345.89-33.52L345.89-33.52Q347.19-33.78 348.31-33.78L348.31-33.78L366.66-33.78Z" fill="#9b9b9b"></path></g></g><style>text {
  font-size: 64px;
  font-family: Arial Black;
  dominant-baseline: central;
  text-anchor: middle;
}</style></svg>