<svg 
  width="421.24249267578125px" 
  height="124.67750549316406px" 
  xmlns="http://www.w3.org/2000/svg" 
  viewBox="39.378753662109375 12.661247253417969 421.24249267578125 124.67750549316406" 
  style="background: rgba(0, 0, 0, 0);" 
  preserveAspectRatio="xMidYMid"
>
  <defs>
    <filter 
      id="editing-extrusion" 
      x="-100%" 
      y="-100%" 
      width="300%" 
      height="300%"
    >
      <feFlood result="color1" flood-color="#646464"></feFlood>
      <feConvolveMatrix 
        order="8,8" 
        divisor="1" 
        kernelMatrix="1 0 0 0 0 0 0 0 0 1 0 0 0 0 0 0 0 0 1 0 0 0 0 0 0 0 0 1 0 0 0 0 0 0 0 0 1 0 0 0 0 0 0 0 0 1 0 0 0 0 0 0 0 0 1 0 0 0 0 0 0 0 0 1" 
        in="SourceAlpha" 
        result="extrude"
      ></feConvolveMatrix>
      <feComposite 
        in="color1" 
        in2="extrude" 
        result="comp-extrude" 
        operator="in"
      ></feComposite>
      <feOffset 
        dx="4" 
        dy="4" 
        in="comp-extrude" 
        result="offset-extrude"
      ></feOffset>
      <feMerge>
        <feMergeNode in="offset-extrude"></feMergeNode>
        <feMergeNode in="SourceGraphic"></feMergeNode>
      </feMerge>
    </filter>
  </defs>
  <g filter="url(#editing-extrusion)">
    <g transform="translate(102.47999453544617, 98.03999900817871)">
      <path 
        d="M30.72-44.80L30.72-36.16L30.72-36.16Q28.86-36.29 25.79-36.54L25.79-36.54L25.79-36.54Q22.72-36.80 20.48-36.80L20.48-36.80L20.48-36.80Q18.24-36.80 17.60-36.16L17.60-36.16L17.60-36.16Q16.96-35.52 16.96-34.56L16.96-34.56L16.96-31.36L27.52-31.36L27.52-22.72L16.96-22.72L16.96 0L5.76 0L5.76-22.72L1.28-22.72L1.28-31.36L5.76-31.36L5.76-35.84L5.76-35.84Q5.76-40.19 8.38-42.82L8.38-42.82L8.38-42.82Q11.01-45.44 15.36-45.44L15.36-45.44L15.36-45.44Q19.26-45.44 23.62-45.18L23.62-45.18L23.62-45.18Q27.97-44.93 30.72-44.80L30.72-44.80ZM30.08-32.64L46.08-32.64L46.08 0L34.88 0L34.88-24L30.08-24L30.08-32.64ZM34.88-36.48L34.88-45.44L46.08-45.44L46.08-36.48L34.88-36.48ZM67.84-10.88L75.20-33.92L87.04-33.92L74.24 0L61.44 0L48.64-33.92L60.48-33.92L67.84-10.88ZM107.84-26.56L102.08-26.56L102.08-26.56Q99.52-26.56 99.52-24L99.52-24L99.52-20.48L110.40-20.48L110.40-24L110.40-24Q110.40-26.56 107.84-26.56L107.84-26.56ZM120.32-8.64L120.32-0.64L120.32-0.64Q107.97 0.64 97.92 0.64L97.92 0.64L97.92 0.64Q93.57 0.64 90.94-1.98L90.94-1.98L90.94-1.98Q88.32-4.61 88.32-8.96L88.32-8.96L88.32-24.32L88.32-24.32Q88.32-29.12 91.04-31.84L91.04-31.84L91.04-31.84Q93.76-34.56 98.56-34.56L98.56-34.56L111.36-34.56L111.36-34.56Q116.16-34.56 118.88-31.84L118.88-31.84L118.88-31.84Q121.60-29.12 121.60-24.32L121.60-24.32L121.60-12.48L99.52-12.48L99.52-9.92L99.52-9.92Q99.52-8.96 100.16-8.32L100.16-8.32L100.16-8.32Q100.80-7.68 101.76-7.68L101.76-7.68L101.76-7.68Q108.10-7.68 120.32-8.64L120.32-8.64ZM154.88-44.80L154.88-36.16L154.88-36.16Q153.02-36.29 149.95-36.54L149.95-36.54L149.95-36.54Q146.88-36.80 144.64-36.80L144.64-36.80L144.64-36.80Q142.40-36.80 141.76-36.16L141.76-36.16L141.76-36.16Q141.12-35.52 141.12-34.56L141.12-34.56L141.12-31.36L151.68-31.36L151.68-22.72L141.12-22.72L141.12 0L129.92 0L129.92-22.72L125.44-22.72L125.44-31.36L129.92-31.36L129.92-35.84L129.92-35.84Q129.92-40.19 132.54-42.82L132.54-42.82L132.54-42.82Q135.17-45.44 139.52-45.44L139.52-45.44L139.52-45.44Q143.42-45.44 147.78-45.18L147.78-45.18L147.78-45.18Q152.13-44.93 154.88-44.80L154.88-44.80ZM169.60-8.64L171.84-8.64L171.84-8.64Q175.23-8.64 179.52-9.92L179.52-9.92L179.52-33.92L190.72-33.92L190.72 0L180.80 0L180.16-3.20L180.16-3.20Q177.15-1.22 173.98-0.29L173.98-0.29L173.98-0.29Q170.82 0.64 168.64 0.64L168.64 0.64L165.76 0.64L165.76 0.64Q161.41 0.64 158.78-1.98L158.78-1.98L158.78-1.98Q156.16-4.61 156.16-8.96L156.16-8.96L156.16-33.92L167.36-33.92L167.36-10.88L167.36-10.88Q167.36-9.92 168-9.28L168-9.28L168-9.28Q168.64-8.64 169.60-8.64L169.60-8.64ZM214.40-8.32L214.40 0L214.40 0Q210.11 0.64 206.24 0.64L206.24 0.64L206.24 0.64Q202.37 0.64 199.74-1.98L199.74-1.98L199.74-1.98Q197.12-4.61 197.12-8.96L197.12-8.96L197.12-44.80L208.32-44.80L208.32-10.56L208.32-10.56Q208.32-9.60 208.96-8.96L208.96-8.96L208.96-8.96Q209.60-8.32 210.56-8.32L210.56-8.32L214.40-8.32ZM241.28-35.84L241.28 0L229.76 0L229.76-35.84L216.32-35.84L216.32-44.80L254.72-44.80L254.72-35.84L241.28-35.84ZM293.76-9.28L293.76-0.64L293.76-0.64Q279.49 0.64 270.08 0.64L270.08 0.64L270.08 0.64Q263.81 0.64 260.86-2.30L260.86-2.30L260.86-2.30Q257.92-5.25 257.92-11.52L257.92-11.52L257.92-32L257.92-32Q257.92-38.72 260.96-41.76L260.96-41.76L260.96-41.76Q264-44.80 270.72-44.80L270.72-44.80L293.76-44.80L293.76-35.84L273.28-35.84L273.28-35.84Q269.44-35.84 269.44-32L269.44-32L269.44-11.52L269.44-11.52Q269.44-10.05 270.30-9.18L270.30-9.18L270.30-9.18Q271.17-8.32 272.51-8.32L272.51-8.32L272.51-8.32Q273.86-8.32 275.46-8.35L275.46-8.35L275.46-8.35Q277.06-8.38 278.78-8.45L278.78-8.45L278.78-8.45Q280.51-8.51 282.27-8.58L282.27-8.58L282.27-8.58Q284.03-8.64 286.82-8.83L286.82-8.83L286.82-8.83Q289.60-9.02 293.76-9.28L293.76-9.28Z" 
        fill="#bdbdbd"
      ></path>
    </g>
  </g>
  <style>
    text {
      font-size: 64px;
      font-family: Arial Black;
      dominant-baseline: central;
      text-anchor: middle;
    }
  </style>
</svg>
