<svg 
  width="294.67748413085934px" 
  height="124.67750549316406px" 
  xmlns="http://www.w3.org/2000/svg" 
  viewBox="102.66125793457033 12.661247253417969 294.67748413085934 124.67750549316406" 
  style="background: rgba(0, 0, 0, 0);" 
  preserveAspectRatio="xMidYMid"
>
  <defs>
    <filter 
      id="editing-extrusion" 
      x="-100%" 
      y="-100%" 
      width="300%" 
      height="300%"
    >
      <feFlood 
        result="color1" 
        flood-color="#444"
        ></feFlood>
      <feConvolveMatrix 
        order="6,6" 
        divisor="1" 
        kernelMatrix="1 0 0 0 0 0 0 1 0 0 0 0 0 0 1 0 0 0 0 0 0 1 0 0 0 0 0 0 1 0 0 0 0 0 0 1" 
        in="SourceAlpha" 
        result="extrude"
        ></feConvolveMatrix>
      <feComposite 
        in="color1" 
        in2="extrude" 
        result="comp-extrude" 
        operator="in
        "></feComposite>
      <feOffset 
        dx="3" 
        dy="3" 
        in="comp-extrude" 
        result="offset-extrude"
      ></feOffset>
      <feMerge>
        <feMergeNode in="offset-extrude"></feMergeNode>
        <feMergeNode in="SourceGraphic"></feMergeNode>
      </feMerge>
    </filter>
  </defs>
  <g filter="url(#editing-extrusion)">
    <g transform="translate(148.69177961349487, 103)">
      <path 
        d="M4.94-7.91L4.94-7.91L4.94-7.91Q6.38-7.91 6.22-5.31L6.22-5.31L6.22-5.31Q6.09-3.78 7.41-2.69L7.41-2.69L7.41-2.69Q8.66-1.63 10.64-1.63L10.64-1.63L10.64-1.63Q12.63-1.63 13.84-2.72L13.84-2.72L13.84-2.72Q15.06-3.81 15.06-5.45L15.06-5.45L15.06-5.45Q15.06-7.09 14.25-8.02L14.25-8.02L14.25-8.02Q13.44-8.94 12.22-9.67L12.22-9.67L12.22-9.67Q11-10.41 9.59-11.08L9.59-11.08L9.59-11.08Q8.19-11.75 6.97-12.63L6.97-12.63L6.97-12.63Q4.13-14.72 4.13-17.78L4.13-17.78L4.13-17.78Q4.13-20.44 5.94-22.19L5.94-22.19L5.94-22.19Q7.88-24.09 10.97-24.09L10.97-24.09L10.97-24.09Q13.63-24.09 15.41-22.56L15.41-22.56L15.41-22.56Q17.31-20.94 17.31-18.34L17.31-18.34L17.31-18.34Q17.50-17.06 16.97-16.45L16.97-16.45L16.97-16.45Q16.44-15.84 15.73-15.84L15.73-15.84L15.73-15.84Q15.03-15.84 14.61-16.47L14.61-16.47L14.61-16.47Q14.19-17.09 14.23-17.94L14.23-17.94L14.23-17.94Q14.28-18.78 14.14-19.42L14.14-19.42L14.14-19.42Q14-20.06 13.59-20.59L13.59-20.59L13.59-20.59Q12.69-21.78 10.66-21.78L10.66-21.78L10.66-21.78Q9.03-21.78 8.28-21L8.28-21L8.28-21Q7-19.66 7-18.19L7-18.19L7-18.19Q7-16.72 7.81-15.77L7.81-15.77L7.81-15.77Q8.63-14.81 9.84-14.05L9.84-14.05L9.84-14.05Q11.06-13.28 12.47-12.59L12.47-12.59L12.47-12.59Q13.88-11.91 15.09-11.03L15.09-11.03L15.09-11.03Q17.94-9 17.94-5.94L17.94-5.94L17.94-5.94Q17.94-3 16-1.19L16-1.19L16-1.19Q13.97 0.72 10.34 0.72L10.34 0.72L10.34 0.72Q7.22 0.72 5.13-1.13L5.13-1.13L5.13-1.13Q2.97-2.97 3.16-5.75L3.16-5.75L3.16-5.75Q3.28-7.91 4.94-7.91ZM27.41-7.63L27.41-7.63L27.41-7.63Q27.41-2.06 31.56-2.06L31.56-2.06L31.56-2.06Q33.94-2.06 35.63-4.44L35.63-4.44L35.63-4.44Q37.13-6.56 37.41-9.50L37.41-9.50L37.41-9.50Q37.50-12.25 37.50-14.56L37.50-14.56L37.50-14.56Q37.50-17.88 37.44-21.25L37.44-21.25L37.44-21.25Q37.38-22.28 37.97-22.81L37.97-22.81L37.97-22.81Q38.56-23.34 39.20-23.34L39.20-23.34L39.20-23.34Q39.84-23.34 40.34-22.86L40.34-22.86L40.34-22.86Q40.84-22.38 40.72-21.44L40.72-21.44L40.72-21.44Q40.16-15.41 40.16-9.80L40.16-9.80L40.16-9.80Q40.16-4.19 40.31-3.53L40.31-3.53L40.31-3.53Q40.47-2.88 40.69-2.44L40.69-2.44L40.69-2.44Q41.19-1.31 41.19-0.80L41.19-0.80L41.19-0.80Q41.19-0.28 40.80 0.17L40.80 0.17L40.80 0.17Q40.41 0.63 39.72 0.63L39.72 0.63L39.72 0.63Q37.38 0.63 37.44-3.66L37.44-3.66L37.44-3.66Q36.38-1.72 35.47-0.97L35.47-0.97L35.47-0.97Q32.38 1.59 28.69 0.25L28.69 0.25L28.69 0.25Q24.56-1.31 24.56-7.91L24.56-7.91L24.56-7.91Q24.56-11.34 24.52-14.69L24.52-14.69L24.52-14.69Q24.47-18.03 24.50-21.25L24.50-21.25L24.50-21.25Q24.53-22.28 25.08-22.80L25.08-22.80L25.08-22.80Q25.63-23.31 26.27-23.31L26.27-23.31L26.27-23.31Q26.91-23.31 27.44-22.84L27.44-22.84L27.44-22.84Q27.97-22.38 27.83-21.25L27.83-21.25L27.83-21.25Q27.69-20.13 27.61-18.31L27.61-18.31L27.61-18.31Q27.53-16.50 27.50-14.59L27.50-14.59L27.50-14.59Q27.41-11.41 27.41-7.63ZM64.19-15.16L64.19-15.16L64.13-8.41L64.13-8.41Q64.13-5.06 64.34-2.16L64.34-2.16L64.34-2.16Q64.41-1.09 63.83-0.58L63.83-0.58L63.83-0.58Q63.25-0.06 62.61-0.06L62.61-0.06L62.61-0.06Q61.97-0.06 61.45-0.55L61.45-0.55L61.45-0.55Q60.94-1.03 61.05-2.02L61.05-2.02L61.05-2.02Q61.16-3 61.23-4.28L61.23-4.28L61.23-4.28Q61.31-5.56 61.38-6.94L61.38-6.94L61.38-6.94Q61.50-9.69 61.50-11.48L61.50-11.48L61.50-11.48Q61.50-13.28 61.44-14.09L61.44-14.09L61.44-14.09Q61.38-14.91 61.31-16.52L61.31-16.52L61.31-16.52Q61.25-18.13 60.47-19.55L60.47-19.55L60.47-19.55Q59.69-20.97 58.28-20.97L58.28-20.97L58.28-20.97Q56.88-20.97 55.84-20.38L55.84-20.38L55.84-20.38Q54.81-19.78 53.94-18.81L53.94-18.81L53.94-18.81Q52.16-16.72 51.56-13.94L51.56-13.94L51.56-13.94Q51.53-13.06 51.53-12.22L51.53-12.22L51.53-10.59L51.53-10.59Q51.53-4.94 51.66-3.11L51.66-3.11L51.66-3.11Q51.78-1.28 51.44-0.67L51.44-0.67L51.44-0.67Q51.09-0.06 50.23-0.06L50.23-0.06L50.23-0.06Q49.38-0.06 48.89-0.61L48.89-0.61L48.89-0.61Q48.41-1.16 48.50-2.63L48.50-2.63L48.50-2.63Q48.81-6.66 48.81-10.91L48.81-10.91L48.81-10.91Q48.81-18.19 48.59-21.59L48.59-21.59L48.59-21.59Q48.47-23.69 50.34-23.69L50.34-23.69L50.34-23.69Q51.31-23.69 51.58-23.09L51.58-23.09L51.58-23.09Q51.84-22.50 51.77-21.84L51.77-21.84L51.77-21.84Q51.69-21.19 51.67-20.72L51.67-20.72L51.67-20.72Q51.66-20.25 51.66-19.75L51.66-19.75L51.66-19.75Q51.66-19.25 51.66-18.84L51.66-18.84L51.66-18.84Q53.50-22.34 56.56-23.44L56.56-23.44L56.56-23.44Q57.53-23.78 58.53-23.78L58.53-23.78L58.53-23.78Q59.53-23.78 60.59-23.33L60.59-23.33L60.59-23.33Q61.66-22.88 62.44-21.84L62.44-21.84L62.44-21.84Q64.19-19.59 64.19-15.16ZM77.38-4.08L77.38-4.08L77.38-4.08Q78.03-3.22 79.03-2.73L79.03-2.73L79.03-2.73Q80.03-2.25 82-2.25L82-2.25L82-2.25Q83.97-2.25 85.94-3.75L85.94-3.75L85.94-3.75Q87.50-4.94 88.38-6.88L88.38-6.88L88.38-6.88Q88.13-7.25 87.84-7.69L87.84-7.69L87.84-7.69Q87.25-8.63 86.66-9.55L86.66-9.55L86.66-9.55Q86.06-10.47 85.55-11.30L85.55-11.30L85.55-11.30Q85.03-12.13 84.66-12.69L84.66-12.69L84.66-12.69Q84.28-13.25 83.73-14.08L83.73-14.08L83.73-14.08Q83.19-14.91 82.59-15.81L82.59-15.81L82.59-15.81Q81.53-17.41 80.75-18.69L80.75-18.69L80.75-18.69Q80.25-17.94 79.72-17.13L79.72-17.13L79.72-17.13Q78.81-15.81 78-14.38L78-14.38L78-14.38Q76.06-10.94 76.06-9.08L76.06-9.08L76.06-9.08Q76.06-7.22 76.39-6.08L76.39-6.08L76.39-6.08Q76.72-4.94 77.38-4.08ZM75.59-38.50L75.59-38.50L75.59-38.50Q75.59-35.81 76.09-33.89L76.09-33.89L76.09-33.89Q76.59-31.97 77.45-30.19L77.45-30.19L77.45-30.19Q78.31-28.41 79.44-26.63L79.44-26.63L79.44-26.63Q80.31-25.19 81.25-23.53L81.25-23.53L81.25-23.53Q81.88-24.41 82.56-25.25L82.56-25.25L82.56-25.25Q83.47-26.38 84.33-27.53L84.33-27.53L84.33-27.53Q85.19-28.69 85.94-29.91L85.94-29.91L85.94-29.91Q86.69-31.13 87.25-32.56L87.25-32.56L87.25-32.56Q88.47-35.63 88.47-38.81L88.47-38.81L88.47-38.81Q88.47-42 88.03-43.81L88.03-43.81L88.03-43.81Q87.59-45.63 86.78-46.81L86.78-46.81L86.78-46.81Q85.19-49.09 82.22-49.09L82.22-49.09L82.22-49.09Q79.59-49.09 77.75-46.63L77.75-46.63L77.75-46.63Q75.59-43.66 75.59-38.50ZM93.25-18.31L93.25-18.31L93.28-17.31L93.28-17.31Q93.28-11.34 91.50-7.13L91.50-7.13L91.50-7.13Q93.56-4.22 95.81-2.31L95.81-2.31L95.81-2.31Q96.66-1.59 96.66-0.86L96.66-0.86L96.66-0.86Q96.66-0.13 96.23 0.33L96.23 0.33L96.23 0.33Q95.81 0.78 95.28 0.78L95.28 0.78L95.28 0.78Q94.16 0.78 93.41-0.44L93.41-0.44L93.41-0.44Q92.16-2.31 91.22-3.56L91.22-3.56L91.22-3.56Q90.59-4.41 90.22-4.91L90.22-4.91L90.22-4.91Q88.81-2.50 86.66-1.06L86.66-1.06L86.66-1.06Q84.16 0.56 81.70 0.56L81.70 0.56L81.70 0.56Q79.25 0.56 77.75-0.06L77.75-0.06L77.75-0.06Q76.25-0.69 75.19-1.84L75.19-1.84L75.19-1.84Q73.03-4.25 73.03-8.31L73.03-8.31L73.03-8.31Q73.03-12.44 77.75-18.69L77.75-18.69L77.75-18.69Q78.66-19.88 79.41-20.97L79.41-20.97L79.41-20.97Q78.22-22.97 77.13-24.75L77.13-24.75L77.13-24.75Q75.78-26.84 74.78-28.88L74.78-28.88L74.78-28.88Q72.56-33.34 72.56-37.27L72.56-37.27L72.56-37.27Q72.56-41.19 73.39-43.94L73.39-43.94L73.39-43.94Q74.22-46.69 75.56-48.50L75.56-48.50L75.56-48.50Q78.28-52.09 82.38-52.09L82.38-52.09L82.38-52.09Q88.69-52.09 90.56-45.16L90.56-45.16L90.56-45.16Q91.22-42.72 91.22-39.84L91.22-39.84L91.22-39.84Q91.22-36.97 90.80-35.05L90.80-35.05L90.80-35.05Q90.38-33.13 89.66-31.48L89.66-31.48L89.66-31.48Q88.94-29.84 87.98-28.42L87.98-28.42L87.98-28.42Q87.03-27 86.02-25.70L86.02-25.70L86.02-25.70Q85-24.41 83.97-23.16L83.97-23.16L83.97-23.16Q83.22-22.25 82.56-21.34L82.56-21.34L82.56-21.34Q83.41-19.88 84-18.91L84-18.91L84-18.91Q84.72-17.69 85.22-16.83L85.22-16.83L85.22-16.83Q85.72-15.97 86.11-15.31L86.11-15.31L86.11-15.31Q86.50-14.66 87.08-13.75L87.08-13.75L87.08-13.75Q87.66-12.84 88.25-11.91L88.25-11.91L88.25-11.91Q89.13-10.56 89.84-9.53L89.84-9.53L89.84-9.53Q90.47-11.56 90.47-13.97L90.47-13.97L90.47-13.97Q90.47-16.88 90.31-17.98L90.31-17.98L90.31-17.98Q90.16-19.09 90.63-19.64L90.63-19.64L90.63-19.64Q91.09-20.19 91.69-20.19L91.69-20.19L91.69-20.19Q92.28-20.19 92.75-19.73L92.75-19.73L92.75-19.73Q93.22-19.28 93.25-18.31ZM105.25-7.91L105.25-7.91L105.25-7.91Q106.69-7.91 106.53-5.31L106.53-5.31L106.53-5.31Q106.41-3.78 107.72-2.69L107.72-2.69L107.72-2.69Q108.97-1.63 110.95-1.63L110.95-1.63L110.95-1.63Q112.94-1.63 114.16-2.72L114.16-2.72L114.16-2.72Q115.38-3.81 115.38-5.45L115.38-5.45L115.38-5.45Q115.38-7.09 114.56-8.02L114.56-8.02L114.56-8.02Q113.75-8.94 112.53-9.67L112.53-9.67L112.53-9.67Q111.31-10.41 109.91-11.08L109.91-11.08L109.91-11.08Q108.50-11.75 107.28-12.63L107.28-12.63L107.28-12.63Q104.44-14.72 104.44-17.78L104.44-17.78L104.44-17.78Q104.44-20.44 106.25-22.19L106.25-22.19L106.25-22.19Q108.19-24.09 111.28-24.09L111.28-24.09L111.28-24.09Q113.94-24.09 115.72-22.56L115.72-22.56L115.72-22.56Q117.63-20.94 117.63-18.34L117.63-18.34L117.63-18.34Q117.81-17.06 117.28-16.45L117.28-16.45L117.28-16.45Q116.75-15.84 116.05-15.84L116.05-15.84L116.05-15.84Q115.34-15.84 114.92-16.47L114.92-16.47L114.92-16.47Q114.50-17.09 114.55-17.94L114.55-17.94L114.55-17.94Q114.59-18.78 114.45-19.42L114.45-19.42L114.45-19.42Q114.31-20.06 113.91-20.59L113.91-20.59L113.91-20.59Q113-21.78 110.97-21.78L110.97-21.78L110.97-21.78Q109.34-21.78 108.59-21L108.59-21L108.59-21Q107.31-19.66 107.31-18.19L107.31-18.19L107.31-18.19Q107.31-16.72 108.13-15.77L108.13-15.77L108.13-15.77Q108.94-14.81 110.16-14.05L110.16-14.05L110.16-14.05Q111.38-13.28 112.78-12.59L112.78-12.59L112.78-12.59Q114.19-11.91 115.41-11.03L115.41-11.03L115.41-11.03Q118.25-9 118.25-5.94L118.25-5.94L118.25-5.94Q118.25-3 116.31-1.19L116.31-1.19L116.31-1.19Q114.28 0.72 110.66 0.72L110.66 0.72L110.66 0.72Q107.53 0.72 105.44-1.13L105.44-1.13L105.44-1.13Q103.28-2.97 103.47-5.75L103.47-5.75L103.47-5.75Q103.59-7.91 105.25-7.91ZM128.09-18.53L128.09-18.53L128.09-18.53Q130.88-24.13 135.25-24.13L135.25-24.13L135.25-24.13Q139.19-24.13 140.56-19.50L140.56-19.50L140.56-19.50Q141.03-17.88 141.03-15.50L141.03-15.50L141.03-10.44L141.03-10.44Q141.03-4.81 141.28-2.06L141.28-2.06L141.28-2.06Q141.34-1.06 140.73-0.53L140.73-0.53L140.73-0.53Q140.13 0 139.44 0L139.44 0L139.44 0Q138.75 0 138.25-0.47L138.25-0.47L138.25-0.47Q137.75-0.94 137.94-2.66L137.94-2.66L137.94-2.66Q138.19-5.31 138.19-8.47L138.19-8.47L138.19-8.47Q138.19-11.63 138.13-12.92L138.13-12.92L138.13-12.92Q138.06-14.22 138.02-16.13L138.02-16.13L138.02-16.13Q137.97-18.03 137.25-19.63L137.25-19.63L137.25-19.63Q136.53-21.22 135.11-21.22L135.11-21.22L135.11-21.22Q133.69-21.22 132.58-20.47L132.58-20.47L132.58-20.47Q131.47-19.72 130.56-18.56L130.56-18.56L130.56-18.56Q128.72-16.09 128.25-13L128.25-13L128.25-13Q128.38-5.53 128.66-2.06L128.66-2.06L128.66-2.06Q128.72-1.06 128.19-0.53L128.19-0.53L128.19-0.53Q127.66 0 126.81 0L126.81 0L126.81 0Q125.22 0 125.22-1.94L125.22-1.94L125.66-36.63L125.66-36.63Q125.66-43.28 125.31-53.25L125.31-53.25L125.31-53.25Q125.25-54.25 125.86-54.73L125.86-54.73L125.86-54.73Q126.47-55.22 127.16-55.22L127.16-55.22L127.16-55.22Q127.84-55.22 128.33-54.73L128.33-54.73L128.33-54.73Q128.81-54.25 128.77-53.03L128.77-53.03L128.77-53.03Q128.72-51.81 128.66-49.48L128.66-49.48L128.66-49.48Q128.59-47.16 128.52-44.22L128.52-44.22L128.52-44.22Q128.44-41.28 128.38-37.91L128.38-37.91L128.38-37.91Q128.31-34.53 128.25-31L128.25-31L128.25-31Q128.19-27.47 128.16-23.94L128.16-23.94L128.16-23.94Q128.13-21.16 128.09-18.53ZM153.63-33.13L153.63-33.13L153.63-33.13Q153.84-32.63 153.80-31.92L153.80-31.92L153.80-31.92Q153.75-31.22 153.47-30.72L153.47-30.72L153.47-30.72Q153.19-30.22 152.81-29.91L152.81-29.91L152.81-29.91Q152.09-29.34 151.34-29.34L151.34-29.34L151.34-29.34Q150.59-29.34 150.16-29.52L150.16-29.52L150.16-29.52Q149.72-29.69 149.38-30L149.38-30L149.38-30Q148.56-30.75 148.56-31.97L148.56-31.97L148.56-31.97Q148.56-33.19 149.19-33.72L149.19-33.72L149.19-33.72Q150.22-34.63 151.25-34.63L151.25-34.63L151.25-34.63Q152.94-34.63 153.63-33.13ZM152.63-21.38L152.63-21.38Q152.47-18.13 152.31-14.97L152.31-14.97L152.31-14.97Q152.16-11.81 152.16-9.28L152.16-9.28L152.16-9.28Q152.16-6.75 152.31-4.05L152.31-4.05L152.31-4.05Q152.47-1.34 152.33-0.95L152.33-0.95L152.33-0.95Q152.19-0.56 151.94-0.31L151.94-0.31L151.94-0.31Q151.41 0.22 150.78 0.22L150.78 0.22L150.78 0.22Q150.16 0.22 149.61-0.25L149.61-0.25L149.61-0.25Q149.06-0.72 149.19-2.16L149.19-2.16L149.19-2.16Q149.53-6.13 149.53-10.19L149.53-10.19L149.53-10.19Q149.53-14.25 149.42-16.77L149.42-16.77L149.42-16.77Q149.31-19.28 149.27-20.56L149.27-20.56L149.27-20.56Q149.22-21.84 149.38-22.22L149.38-22.22L149.38-22.22Q149.53-22.59 149.81-22.81L149.81-22.81L149.81-22.81Q150.34-23.31 151-23.31L151-23.31L151-23.31Q151.66-23.31 152.16-22.84L152.16-22.84L152.16-22.84Q152.66-22.38 152.63-21.38L152.63-21.38ZM176.63-15.16L176.63-15.16L176.56-8.41L176.56-8.41Q176.56-5.06 176.78-2.16L176.78-2.16L176.78-2.16Q176.84-1.09 176.27-0.58L176.27-0.58L176.27-0.58Q175.69-0.06 175.05-0.06L175.05-0.06L175.05-0.06Q174.41-0.06 173.89-0.55L173.89-0.55L173.89-0.55Q173.38-1.03 173.48-2.02L173.48-2.02L173.48-2.02Q173.59-3 173.67-4.28L173.67-4.28L173.67-4.28Q173.75-5.56 173.81-6.94L173.81-6.94L173.81-6.94Q173.94-9.69 173.94-11.48L173.94-11.48L173.94-11.48Q173.94-13.28 173.88-14.09L173.88-14.09L173.88-14.09Q173.81-14.91 173.75-16.52L173.75-16.52L173.75-16.52Q173.69-18.13 172.91-19.55L172.91-19.55L172.91-19.55Q172.13-20.97 170.72-20.97L170.72-20.97L170.72-20.97Q169.31-20.97 168.28-20.38L168.28-20.38L168.28-20.38Q167.25-19.78 166.38-18.81L166.38-18.81L166.38-18.81Q164.59-16.72 164-13.94L164-13.94L164-13.94Q163.97-13.06 163.97-12.22L163.97-12.22L163.97-10.59L163.97-10.59Q163.97-4.94 164.09-3.11L164.09-3.11L164.09-3.11Q164.22-1.28 163.88-0.67L163.88-0.67L163.88-0.67Q163.53-0.06 162.67-0.06L162.67-0.06L162.67-0.06Q161.81-0.06 161.33-0.61L161.33-0.61L161.33-0.61Q160.84-1.16 160.94-2.63L160.94-2.63L160.94-2.63Q161.25-6.66 161.25-10.91L161.25-10.91L161.25-10.91Q161.25-18.19 161.03-21.59L161.03-21.59L161.03-21.59Q160.91-23.69 162.78-23.69L162.78-23.69L162.78-23.69Q163.75-23.69 164.02-23.09L164.02-23.09L164.02-23.09Q164.28-22.50 164.20-21.84L164.20-21.84L164.20-21.84Q164.13-21.19 164.11-20.72L164.11-20.72L164.11-20.72Q164.09-20.25 164.09-19.75L164.09-19.75L164.09-19.75Q164.09-19.25 164.09-18.84L164.09-18.84L164.09-18.84Q165.94-22.34 169-23.44L169-23.44L169-23.44Q169.97-23.78 170.97-23.78L170.97-23.78L170.97-23.78Q171.97-23.78 173.03-23.33L173.03-23.33L173.03-23.33Q174.09-22.88 174.88-21.84L174.88-21.84L174.88-21.84Q176.63-19.59 176.63-15.16ZM196.59-13.50L196.59-13.50L196.59-13.50Q196.66-18.94 194.31-20.94L194.31-20.94L194.31-20.94Q193.38-21.78 192.03-21.78L192.03-21.78L192.03-21.78Q190.69-21.78 189.81-21.28L189.81-21.28L189.81-21.28Q188.94-20.78 188.27-19.94L188.27-19.94L188.27-19.94Q187.59-19.09 187.14-18.02L187.14-18.02L187.14-18.02Q186.69-16.94 186.41-15.81L186.41-15.81L186.41-15.81Q186.13-14.63 186-13.47L186-13.47L190.28-13.28L190.28-13.28Q194.47-13.28 196.59-13.50ZM197.13-10.97L185.88-10.78L185.88-10.78Q185.94-6.47 187.44-4.19L187.44-4.19L187.44-4.19Q189.06-1.75 192.03-1.75L192.03-1.75L192.03-1.75Q194.75-1.75 196-4.44L196-4.44L196-4.44Q196.78-6.19 197.94-6.19L197.94-6.19L197.94-6.19Q198.47-6.19 198.83-5.84L198.83-5.84L198.83-5.84Q199.19-5.50 199.16-4.64L199.16-4.64L199.16-4.64Q199.13-3.78 198.55-2.78L198.55-2.78L198.55-2.78Q197.97-1.78 196.94-1L196.94-1L196.94-1Q194.69 0.75 191.53 0.75L191.53 0.75L191.53 0.75Q188.13 0.75 185.66-2.16L185.66-2.16L185.66-2.16Q183.06-5.22 183.06-9.44L183.06-9.44L183.06-9.44Q183.06-13.66 183.80-16.30L183.80-16.30L183.80-16.30Q184.53-18.94 185.75-20.69L185.75-20.69L185.75-20.69Q188.13-24.22 191.69-24.22L191.69-24.22L191.69-24.22Q196.25-24.22 198.09-20.63L198.09-20.63L198.09-20.63Q199.38-18.13 199.47-13.28L199.47-13.28L199.47-13.28Q199.50-11.91 199.03-11.44L199.03-11.44L199.03-11.44Q198.56-10.97 197.13-10.97L197.13-10.97Z" 
        fill="#ccc"
      ></path>
    </g>
  </g>
  <style>
    text {
      font-size: 64px;
      font-family: Arial Black;
      dominant-baseline: central;
      text-anchor: middle;
    }
  </style>
</svg>
